<?xml version="1.0" encoding="utf-8"?>
<!-- Svg Vector Icons : http://www.onlinewebfonts.com/icon -->
<!DOCTYPE svg PUBLIC "-//W3C//DTD SVG 1.1//EN" "http://www.w3.org/Graphics/SVG/1.1/DTD/svg11.dtd">
<svg version="1.1" xmlns="http://www.w3.org/2000/svg" xmlns:xlink="http://www.w3.org/1999/xlink" x="0px" y="0px" viewBox="0 0 1000 1000" enable-background="new 0 0 1000 1000" xml:space="preserve">
<metadata> Svg Vector Icons : http://www.onlinewebfonts.com/icon </metadata>
<g><g transform="translate(0.000000,511.000000) scale(0.100000,-0.100000)"><path d="M4955.4,4751.9c-17.2-17.2-40.2-47.9-49.8-67c-9.6-19.2-298.7-756.3-641.4-1638.9c-340.8-880.7-626.1-1608.3-633.7-1614c-5.7-5.8-781.1-42.1-1725-82.3C92.3,1275,100,1275,100,1186.9c0-47.9,78.5-114.9,1474.2-1252.1C2275-635.8,2849.4-1112.5,2853.2-1125.9c3.8-15.3-197.2-752.4-444.2-1640.8c-248.9-888.4-451.8-1646.5-451.8-1684.8c0-101.5,36.4-122.5,137.9-74.6c45.9,21.1,727.5,453.7,1518.3,964.9l1434,926.7l451.8-298.7c247-164.6,888.4-589.7,1424.5-945.8c536.1-358,1001.3-658.6,1032-670.1c76.6-24.9,116.8,23,99.6,120.6c-7.7,36.4-210.6,815.6-451.8,1730.8c-352.3,1334.5-434.6,1669.5-415.5,1688.7c13.4,13.4,593.5,472.9,1288.5,1022.4c695,549.5,1300,1033.9,1345.9,1076c111,105.3,103.4,151.3-24.9,181.9c-51.7,11.5-861.6,63.2-1795.9,113c-1497.2,82.3-1704,97.6-1719.3,124.4c-13.4,24.9-695,1851.4-1083.7,2904.4c-84.2,229.7-147.4,348.5-189.5,361.9C4995.6,4778.7,4972.6,4769.1,4955.4,4751.9z"/></g></g>
</svg>